<?xml version="1.0" encoding="utf-8"?>
<!-- Generator: Adobe Illustrator 23.0.1, SVG Export Plug-In . SVG Version: 6.00 Build 0)  -->
<svg version="1.1" id="Ebene_1" xmlns="http://www.w3.org/2000/svg" xmlns:xlink="http://www.w3.org/1999/xlink" x="0px" y="0px"
	 viewBox="0 0 1024 1024" style="enable-background:new 0 0 1024 1024;" xml:space="preserve">
<style type="text/css">
	.st0{fill:#00BA70;}
	.st1{fill:#FFFFFF;}
	.st2{font-family:'TheSans-LP7Bld';}
	.st3{font-size:116.08px;}
</style>
<title>190129_UZH_CRS_RGB_Lindengrün_rund</title>
<g id="Gestaltungsfläche">
	<rect y="383.1" class="st0" width="1024" height="640.9"/>
</g>
<g id="UZH">
	<path d="M337,300.7c-53.5,0-66.5-28.9-66.5-62.5V129.4h38.8V236c0,19.7,6.2,32.1,30.1,32.1c21.9,0,30.4-9.2,30.4-34.4V129.4h38.3
		v102C408.1,278.8,381.5,300.7,337,300.7z"/>
	<path d="M454.3,297.4V267l54-90.4c3-4.5,5.7-8.7,9-12.9c-4.5,0.2-10.2,0.5-26.4,0.5H456v-34.9h108.8V161l-57,91.6
		c-2.2,3-4,6-6.5,9.5c3.2-0.5,12.7-0.5,32.6-0.5h31.9v35.8H454.3z"/>
	<path d="M714.8,297.4v-69.9h-61.5v69.9h-38.8v-168h38.8v64.5h61.5v-64.5h38.8v168H714.8z"/>
	<text transform="matrix(1 0 0 1 270.5 565.39)" class="st1 st2 st3">C</text>
	<text transform="matrix(1 0 0 1 334.7 565.39)" class="st1 st2 st3">e</text>
	<text transform="matrix(1 0 0 1 394.36 565.39)" class="st1 st2 st3">n</text>
	<text transform="matrix(1 0 0 1 459.95 565.39)" class="st1 st2 st3">ter </text>
	<text transform="matrix(1 0 0 1 629.66 565.39)" class="st1 st2 st3">f</text>
	<text transform="matrix(1 0 0 1 669.01 565.39)" class="st1 st2 st3">or </text>
	<text transform="matrix(1 0 0 1 270.5 702.58)" class="st1 st2 st3">R</text>
	<text transform="matrix(1 0 0 1 334.81 702.58)" class="st1 st2 st3">ep</text>
	<text transform="matrix(1 0 0 1 459.37 702.58)" class="st1 st2 st3">r</text>
	<text transform="matrix(1 0 0 1 499.3 702.58)" class="st1 st2 st3">oducible </text>
	<text transform="matrix(1 0 0 1 270.5 839.77)" class="st1 st2 st3">Scien</text>
	<text transform="matrix(1 0 0 1 535.05 839.77)" class="st1 st2 st3">c</text>
	<text transform="matrix(1 0 0 1 584.04 839.77)" class="st1 st2 st3">e</text>
</g>
<g id="Kreis">
	<g>
		<path class="st1" d="M-33,1057.1V-33h1090.1v1090.1H-33z M512,0.1C229.2,0.3,0.1,229.6,0.3,512.4C0.4,718,123.4,903.5,312.8,983.7
			c260.5,110,560.9-11.9,670.9-272.4s-12-560.9-272.5-670.9C648.2,13.7,580.4,0,512,0.1z"/>
		<path class="st1" d="M1056.9-32.9v1089.8H-32.9V-32.9H1056.9 M512,1024c282.8,0,512-229.2,512-512S794.8,0,512,0S0,229.2,0,512
			S229.2,1024,512,1024 M1057.2-33.2H-33.2v1090.3h1090.3L1057.2-33.2L1057.2-33.2z M512,1023.8C229.3,1023.6,0.3,794.3,0.4,511.6
			c0.1-205.5,123.1-391,312.4-471.1c260.4-110,560.7,11.9,670.7,272.3s-11.9,560.7-272.3,670.7
			C648.2,1010.2,580.4,1023.9,512,1023.8z"/>
	</g>
	<g>
		<path class="st1" d="M-33,1057.1V-33h1090.1v1090.1H-33z M512,0.1C229.2,0.3,0.1,229.6,0.3,512.4C0.4,718,123.4,903.5,312.8,983.7
			c260.5,110,560.9-11.9,670.9-272.4s-12-560.9-272.5-670.9C648.2,13.7,580.4,0,512,0.1z"/>
		<path class="st1" d="M1056.9-32.9v1089.8H-32.9V-32.9H1056.9 M512,1024c282.8,0,512-229.2,512-512S794.8,0,512,0S0,229.2,0,512
			S229.2,1024,512,1024 M1057.2-33.2H-33.2v1090.3h1090.3L1057.2-33.2L1057.2-33.2z M512,1023.8C229.3,1023.6,0.3,794.3,0.4,511.6
			c0.1-205.5,123.1-391,312.4-471.1c260.4-110,560.7,11.9,670.7,272.3s-11.9,560.7-272.3,670.7
			C648.2,1010.2,580.4,1023.9,512,1023.8z"/>
	</g>
</g>
<g>
	<path class="st0" d="M511.9,1c69,0,135.9,13.5,198.9,40.1c60.8,25.7,115.5,62.6,162.4,109.5S956.9,252.2,982.7,313
		c26.6,63,40.1,129.9,40.1,198.9s-13.5,135.9-40.1,198.9c-25.7,60.8-62.6,115.5-109.5,162.4s-101.6,83.8-162.4,109.5
		c-63,26.6-129.9,40.1-198.9,40.1S376,1009.3,313,982.7c-60.8-25.7-115.5-62.6-162.4-109.5S66.9,771.6,41.1,710.8
		C14.5,647.8,1,580.9,1,511.9S14.5,376,41.1,313c25.7-60.8,62.6-115.5,109.5-162.4S252.2,66.9,313,41.1C376,14.5,442.9,1,511.9,1
		 M511.9,0C229.2,0,0,229.2,0,511.9s229.2,511.9,511.9,511.9s511.9-229.2,511.9-511.9S794.6,0,511.9,0L511.9,0z"/>
</g>
</svg>
