<?xml version="1.0" encoding="UTF-8" standalone="no"?>
<!-- Created with Inkscape (http://www.inkscape.org/) -->

<svg
   width="35.695396mm"
   height="35.380257mm"
   viewBox="0 0 35.695397 35.380257"
   version="1.1"
   id="svg1"
   xml:space="preserve"
   sodipodi:docname="Logo_AFFORD-icon.svg"
   xmlns:inkscape="http://www.inkscape.org/namespaces/inkscape"
   xmlns:sodipodi="http://sodipodi.sourceforge.net/DTD/sodipodi-0.dtd"
   xmlns="http://www.w3.org/2000/svg"
   xmlns:svg="http://www.w3.org/2000/svg"><sodipodi:namedview
     id="namedview1"
     pagecolor="#ffffff"
     bordercolor="#000000"
     borderopacity="0.25"
     inkscape:showpageshadow="2"
     inkscape:pageopacity="0.0"
     inkscape:pagecheckerboard="0"
     inkscape:deskcolor="#d1d1d1"
     inkscape:document-units="mm" /><defs
     id="defs1" /><g
     inkscape:label="Layer 1"
     inkscape:groupmode="layer"
     id="layer1"
     transform="translate(-36.411236,-180.77787)"><path
       style="fill:#00ba6f;fill-opacity:1;stroke:none;stroke-width:0.352157"
       d="m 60.074087,189.64022 v -4.65874 c 0,-0.69066 0.132495,-1.53339 -0.279814,-2.13433 -0.718972,-1.04791 -2.184186,-1.43704 -3.35401,-1.68204 -2.496208,-0.52277 -4.957214,-0.51454 -7.453999,0.0144 -1.059029,0.22438 -2.374618,0.61429 -3.089297,1.48095 -0.565156,0.68535 -0.451352,1.48801 -0.451352,2.32096 v 4.56558 6.14955 c 0,0.80459 -0.210933,1.96494 0.149468,2.70207 0.443023,0.90612 1.465583,1.34535 2.366256,1.65206 2.001008,0.68141 4.16631,0.79409 6.242723,0.59996 1.537978,-0.14379 2.802998,2.41457 4.456581,1.86263 2.251163,-0.75139 4.473913,-2.42904 5.19817,-4.76687 0.336899,-1.08748 0.31497,-2.13528 0.31497,-3.26113 0,-0.69995 0.262565,-2.0701 -0.09576,-2.68252 -0.192338,-0.32872 -0.664504,-0.48579 -0.982724,-0.66301 -0.917743,-0.51108 -2,-1.26805 -3.02121,-1.49957 m -8.199399,-7.89326 c 1.766571,-0.20843 3.828936,0.0404 5.497323,0.63303 0.559406,0.1987 1.480871,0.48922 1.699367,1.11213 0.185735,0.52952 -0.369955,0.94124 -0.767977,1.16297 -1.002941,0.55871 -2.229748,0.80249 -3.353939,0.95914 -2.146586,0.2991 -4.442888,0.11583 -6.522248,-0.46832 -0.63472,-0.17831 -1.879544,-0.60822 -1.993557,-1.36764 -0.08688,-0.5787 0.735406,-0.9798 1.154982,-1.17504 1.388499,-0.64614 2.803834,-0.68138 4.286049,-0.85627 m -5.310974,3.51405 c 0.993399,0.69884 2.185006,0.92023 3.354299,1.13392 3.295545,0.60225 6.151995,-0.009 9.224322,-1.13392 v 2.42255 c -1.5e-5,0.27734 0.07801,0.73561 -0.109852,0.96835 -0.183573,0.22741 -1.211686,0.25959 -1.567298,0.46522 -2.851138,1.64868 -7.164065,1.94708 -10.155999,0.27334 -1.125397,-0.62956 -0.931822,-1.60389 -0.931822,-2.73184 0,-0.46037 -0.101467,-1.01771 0.18635,-1.39762 m 11.643206,4.52395 c 0.735016,-0.15664 2.169849,0.95498 2.798915,1.31078 0.561357,0.31749 1.771464,0.68178 2.1418,1.21752 0.336853,0.48731 0.0944,1.77726 0.0944,2.35842 0,3.00832 -1.413327,6.19083 -4.751923,6.85074 -0.929857,0.18379 -2.132986,-0.83246 -2.736872,-1.4348 -1.70396,-1.69958 -2.201402,-3.53535 -2.201402,-5.88181 0,-0.53079 -0.123394,-1.23918 0.02962,-1.74948 0.115812,-0.38622 0.767611,-0.60231 1.08848,-0.78709 1.016829,-0.58558 2.394521,-1.64082 3.536983,-1.88428 m -5.120958,1.53242 c -0.462293,0.88856 -0.465875,1.49915 -0.465875,2.51573 0,0.3089 0.125866,0.9907 -0.149396,1.20869 -0.425711,0.33712 -1.853843,-0.0596 -2.366328,-0.13021 -1.060175,-0.14609 -2.778639,-0.47786 -3.487663,-1.37009 -0.525979,-0.66189 -0.377465,-2.83921 -0.146161,-3.62174 2.12189,1.09889 4.24836,1.39762 6.615423,1.39762 m -14.907996,0.51779 c -2.351472,0.60556 -1.677149,3.92448 -1.677149,5.72494 v 5.49732 c 0,0.73764 -0.200184,1.82029 0.05622,2.51572 0.270447,0.73353 1.263283,1.41269 1.807277,1.95668 l 4.379224,4.37922 c 1.044096,1.04619 0.789113,1.94406 1.094446,3.26113 0.09499,0.40973 0.209928,1.03923 0.768982,0.98423 0.480684,-0.0473 0.571995,-0.49327 0.555311,-0.89113 -0.03622,-0.86379 -0.117012,-2.70998 -0.62433,-3.42044 -0.393809,-0.5515 -1.065987,-1.02228 -1.549681,-1.50597 L 39.5638,206.9124 c -0.560688,-0.5607 -1.406549,-1.16663 -1.737325,-1.89967 -0.271395,-0.60145 -0.114383,-1.49374 -0.114383,-2.14166 v -4.65875 c 0,-1.30773 -0.256027,-2.91865 0.03674,-4.19287 0.113409,-0.4936 0.553749,-0.98389 1.081361,-1.01069 0.654676,-0.0332 1.093387,0.52372 1.238739,1.10386 0.299898,1.19698 0.139131,2.86858 0.06161,4.09963 -0.04111,0.65285 -0.585194,0.74278 -1.003284,1.13406 -0.393827,0.36857 -0.642472,0.93671 -0.665382,1.47491 -0.04313,1.01333 0.626728,1.67962 1.288273,2.34116 l 3.074775,3.07478 c 0.390348,0.39035 0.976927,1.38198 1.435297,1.59613 0.897134,0.41912 1.143231,-0.78118 0.657113,-1.31624 -1.548748,-1.70469 -3.709669,-3.16039 -5.009808,-5.05978 -0.47222,-0.68988 0.251883,-1.71282 1.065329,-1.37282 1.390344,0.58112 2.441778,2.37537 3.553518,3.35746 1.660609,1.46695 4.269156,2.29481 5.474462,4.18475 0.690402,1.08257 0.818813,2.39368 0.981643,3.63016 0.166287,1.26272 -0.08736,2.5609 0.09354,3.82017 0.05912,0.4116 0.184094,1.23389 0.798314,1.05642 0.889241,-0.25694 0.424209,-1.45678 0.381399,-2.08134 -0.14414,-2.10289 0.04952,-4.09988 -0.695576,-6.12295 -0.838609,-2.27698 -2.77516,-2.89622 -4.597136,-4.16922 -1.370484,-0.95755 -2.461112,-2.25054 -3.660353,-3.40089 -0.53947,-0.51747 -1.346419,-0.98205 -1.807422,-1.54407 -0.292165,-0.35619 -0.149324,-1.10205 -0.149324,-1.53437 0,-1.236 0.214038,-2.72028 -0.163344,-3.91335 -0.395154,-1.24924 -1.773534,-1.84909 -3.004606,-1.53206 m 30.74774,0 c -2.283987,0.58473 -1.770323,3.58759 -1.770323,5.35224 0,0.4363 0.138303,1.16746 -0.09576,1.55327 -0.313512,0.51676 -1.218517,1.00568 -1.675927,1.43703 -1.287977,1.21459 -2.434302,2.66022 -3.927802,3.6377 -1.837987,1.20295 -3.771964,1.92828 -4.54278,4.19611 -0.711341,2.09284 -0.415011,4.09213 -0.698741,6.22691 -0.07037,0.52948 -0.407192,2.01283 0.596865,1.91325 0.641412,-0.0636 0.648036,-1.16681 0.65359,-1.63373 0.02113,-1.77647 -0.150748,-3.68692 0.400019,-5.40415 0.960971,-2.99617 4.017623,-3.786 6.189162,-5.74204 1.0939,-0.98535 2.055328,-2.56415 3.382264,-3.24258 0.81653,-0.41748 1.667493,0.58304 1.157499,1.3281 -1.270661,1.85634 -3.388631,3.36051 -4.942803,4.98932 -0.480016,0.50307 -0.477508,1.70591 0.510378,1.40215 0.455339,-0.14 1.081324,-1.17845 1.444859,-1.54198 l 3.144945,-3.14438 c 0.661545,-0.66154 1.331408,-1.32783 1.288273,-2.34116 -0.05831,-1.36967 -1.655848,-1.60898 -1.672406,-2.79525 -0.01705,-1.22152 -0.262389,-2.83272 0.0908,-4.00652 0.178948,-0.59473 0.722982,-1.16015 1.399635,-0.98416 0.474004,0.12328 0.837663,0.60707 0.911834,1.07733 0.20566,1.30391 0.01993,2.77923 0.01993,4.0997 v 4.56558 c 0,0.65277 0.149086,1.52317 -0.07628,2.14266 -0.298833,0.82144 -1.309993,1.5264 -1.91519,2.1316 -1.557603,1.5576 -3.340441,3.04362 -4.769971,4.71144 -0.570626,0.66575 -0.652604,2.63777 -0.688746,3.49967 -0.01669,0.39786 0.07462,0.84384 0.55531,0.89113 0.559056,0.055 0.673994,-0.5745 0.768981,-0.98423 0.249218,-1.07501 -0.02004,-2.11147 0.816649,-2.9816 1.460076,-1.51846 2.981093,-2.98282 4.470673,-4.4724 0.604316,-0.60432 1.569471,-1.28062 1.954086,-2.04985 0.389324,-0.77864 0.09576,-2.30417 0.09576,-3.16795 v -6.24272 c 0,-0.88225 0.199825,-2.05225 -0.102953,-2.88843 -0.44264,-1.22243 -1.704934,-1.85641 -2.971821,-1.53206 m -8.385747,1.71841 c -0.510265,0.70905 -1.24776,1.24931 -1.863497,1.8635 -0.21615,0.21561 -0.507261,0.62635 -0.834909,0.66323 -0.629967,0.0709 -1.011684,-1.30139 -1.67866,-0.96591 -0.90017,0.45279 1.016055,2.28235 1.59023,2.34829 0.443979,0.051 0.924723,-0.65234 1.202501,-0.92614 0.792654,-0.7813 2.651805,-1.856 1.86386,-2.98297 h -0.279525 m -7.826697,2.51573 c 0.03226,1.37862 0.893929,2.42013 1.397625,3.63382 -1.930213,0.0829 -3.922566,0.16548 -5.776848,-0.50031 -0.636873,-0.22867 -1.510463,-0.50047 -1.849696,-1.14571 -0.428124,-0.8143 -0.106979,-2.47264 -0.106979,-3.38543 0.702972,0.14002 1.366681,0.59139 2.065666,0.79947 1.345524,0.40053 2.868482,0.59816 4.270232,0.59816 z"
       id="path2"
       inkscape:export-filename="affordLogo.svg"
       inkscape:export-xdpi="96.400002"
       inkscape:export-ydpi="96.400002" /></g></svg>
